<svg width="236" height="118" viewBox="0 0 236 118" fill="none" xmlns="http://www.w3.org/2000/svg">
<path opacity="0.72" d="M71.25 62.6C74.95 62.6 78.1833 63.35 80.95 64.85C83.75 66.35 85.9 68.4333 87.4 71.1C88.9 73.7667 89.65 76.8 89.65 80.2C89.65 83.5667 88.9 86.6 87.4 89.3C85.9 92 83.75 94.1333 80.95 95.7C78.1833 97.2333 74.95 98 71.25 98H56.5V62.6H71.25ZM70.25 88.1C72.75 88.1 74.7333 87.4167 76.2 86.05C77.6667 84.6833 78.4 82.7333 78.4 80.2C78.4 77.6667 77.6667 75.7167 76.2 74.35C74.7333 72.9833 72.75 72.3 70.25 72.3H67.6V88.1H70.25ZM120.958 83.65C120.958 84.4167 120.908 85.15 120.808 85.85H102.958C103.125 88.2833 104.142 89.5 106.008 89.5C107.208 89.5 108.075 88.95 108.608 87.85H120.358C119.958 89.85 119.108 91.65 117.808 93.25C116.542 94.8167 114.925 96.0667 112.958 97C111.025 97.9 108.892 98.35 106.558 98.35C103.758 98.35 101.258 97.7667 99.0582 96.6C96.8915 95.4333 95.1915 93.7667 93.9582 91.6C92.7582 89.4 92.1582 86.8333 92.1582 83.9C92.1582 80.9667 92.7582 78.4167 93.9582 76.25C95.1915 74.05 96.8915 72.3667 99.0582 71.2C101.258 70.0333 103.758 69.45 106.558 69.45C109.358 69.45 111.842 70.0333 114.008 71.2C116.208 72.3333 117.908 73.9667 119.108 76.1C120.342 78.2333 120.958 80.75 120.958 83.65ZM109.708 81C109.708 80.0667 109.408 79.3667 108.808 78.9C108.208 78.4 107.458 78.15 106.558 78.15C104.592 78.15 103.442 79.1 103.108 81H109.708ZM137.019 98.35C134.352 98.35 131.985 97.9167 129.919 97.05C127.885 96.1833 126.269 94.9833 125.069 93.45C123.869 91.9167 123.185 90.1833 123.019 88.25H133.669C133.802 89.0833 134.152 89.7 134.719 90.1C135.319 90.5 136.069 90.7 136.969 90.7C137.535 90.7 137.985 90.5833 138.319 90.35C138.652 90.0833 138.819 89.7667 138.819 89.4C138.819 88.7667 138.469 88.3167 137.769 88.05C137.069 87.7833 135.885 87.4833 134.219 87.15C132.185 86.75 130.502 86.3167 129.169 85.85C127.869 85.3833 126.719 84.5833 125.719 83.45C124.752 82.3167 124.269 80.75 124.269 78.75C124.269 77.0167 124.719 75.45 125.619 74.05C126.552 72.6167 127.919 71.5 129.719 70.7C131.519 69.8667 133.702 69.45 136.269 69.45C140.069 69.45 143.035 70.3833 145.169 72.25C147.335 74.1167 148.635 76.55 149.069 79.55H139.219C139.052 78.7833 138.702 78.2 138.169 77.8C137.635 77.3667 136.919 77.15 136.019 77.15C135.452 77.15 135.019 77.2667 134.719 77.5C134.419 77.7 134.269 78.0167 134.269 78.45C134.269 79.0167 134.619 79.45 135.319 79.75C136.019 80.0167 137.135 80.3 138.669 80.6C140.702 81 142.419 81.45 143.819 81.95C145.219 82.45 146.435 83.3167 147.469 84.55C148.502 85.75 149.019 87.4167 149.019 89.55C149.019 91.2167 148.535 92.7167 147.569 94.05C146.602 95.3833 145.202 96.4333 143.369 97.2C141.569 97.9667 139.452 98.35 137.019 98.35ZM159.024 67.55C157.09 67.55 155.54 67.0333 154.374 66C153.207 64.9667 152.624 63.6667 152.624 62.1C152.624 60.5 153.207 59.1833 154.374 58.15C155.54 57.0833 157.09 56.55 159.024 56.55C160.924 56.55 162.457 57.0833 163.624 58.15C164.79 59.1833 165.374 60.5 165.374 62.1C165.374 63.6667 164.79 64.9667 163.624 66C162.457 67.0333 160.924 67.55 159.024 67.55ZM164.524 69.8V98H153.424V69.8H164.524ZM179.687 69.45C181.52 69.45 183.104 69.8333 184.437 70.6C185.77 71.3333 186.787 72.35 187.487 73.65V69.8H198.537V97.5C198.537 100.133 198.054 102.533 197.087 104.7C196.12 106.867 194.554 108.6 192.387 109.9C190.254 111.2 187.504 111.85 184.137 111.85C179.604 111.85 176.004 110.783 173.337 108.65C170.704 106.55 169.204 103.683 168.837 100.05H179.737C180.037 101.517 181.237 102.25 183.337 102.25C184.637 102.25 185.654 101.917 186.387 101.25C187.12 100.583 187.487 99.3333 187.487 97.5V94.15C186.787 95.45 185.77 96.4833 184.437 97.25C183.104 97.9833 181.52 98.35 179.687 98.35C177.487 98.35 175.504 97.7833 173.737 96.65C171.97 95.4833 170.57 93.8167 169.537 91.65C168.537 89.45 168.037 86.8667 168.037 83.9C168.037 80.9333 168.537 78.3667 169.537 76.2C170.57 74 171.97 72.3333 173.737 71.2C175.504 70.0333 177.487 69.45 179.687 69.45ZM187.487 83.9C187.487 82.4 187.104 81.2333 186.337 80.4C185.57 79.5667 184.587 79.15 183.387 79.15C182.187 79.15 181.204 79.5667 180.437 80.4C179.67 81.2333 179.287 82.4 179.287 83.9C179.287 85.4 179.67 86.5667 180.437 87.4C181.204 88.2333 182.187 88.65 183.387 88.65C184.587 88.65 185.57 88.2333 186.337 87.4C187.104 86.5667 187.487 85.4 187.487 83.9ZM223.271 69.6C226.505 69.6 229.021 70.6833 230.821 72.85C232.655 75.0167 233.571 77.95 233.571 81.65V98H222.521V83.05C222.521 81.7167 222.155 80.6667 221.421 79.9C220.721 79.1 219.771 78.7 218.571 78.7C217.338 78.7 216.371 79.1 215.671 79.9C214.971 80.6667 214.621 81.7167 214.621 83.05V98H203.521V69.8H214.621V74.1C215.488 72.7667 216.638 71.6833 218.071 70.85C219.538 70.0167 221.271 69.6 223.271 69.6Z" fill="url(#paint0_linear_14_7)"/>
<path d="M45.05 19.6V55H34V37.35L28.55 55H19.05L13.6 37.35V55H2.5V19.6H16.1L23.9 40.85L31.5 19.6H45.05ZM63.4586 55.35C60.6253 55.35 58.0753 54.7667 55.8086 53.6C53.5419 52.4333 51.7586 50.7667 50.4586 48.6C49.1919 46.4 48.5586 43.8333 48.5586 40.9C48.5586 37.9667 49.1919 35.4167 50.4586 33.25C51.7586 31.05 53.5419 29.3667 55.8086 28.2C58.0753 27.0333 60.6253 26.45 63.4586 26.45C66.2919 26.45 68.8419 27.0333 71.1086 28.2C73.3753 29.3667 75.1419 31.05 76.4086 33.25C77.7086 35.4167 78.3586 37.9667 78.3586 40.9C78.3586 43.8333 77.7086 46.4 76.4086 48.6C75.1419 50.7667 73.3753 52.4333 71.1086 53.6C68.8419 54.7667 66.2919 55.35 63.4586 55.35ZM63.4586 45.75C64.4919 45.75 65.3586 45.35 66.0586 44.55C66.7586 43.7167 67.1086 42.5 67.1086 40.9C67.1086 39.3 66.7586 38.1 66.0586 37.3C65.3586 36.4667 64.4919 36.05 63.4586 36.05C62.4253 36.05 61.5586 36.4667 60.8586 37.3C60.1586 38.1 59.8086 39.3 59.8086 40.9C59.8086 42.5 60.1419 43.7167 60.8086 44.55C61.5086 45.35 62.3919 45.75 63.4586 45.75ZM80.3457 40.9C80.3457 37.9333 80.8457 35.3667 81.8457 33.2C82.879 31 84.279 29.3333 86.0457 28.2C87.8124 27.0333 89.7957 26.45 91.9957 26.45C93.829 26.45 95.3957 26.8333 96.6957 27.6C98.029 28.3333 99.0457 29.35 99.7457 30.65V18H110.846V55H99.7457V51.15C99.0457 52.45 98.029 53.4833 96.6957 54.25C95.3957 54.9833 93.829 55.35 91.9957 55.35C89.7957 55.35 87.8124 54.7833 86.0457 53.65C84.279 52.4833 82.879 50.8167 81.8457 48.65C80.8457 46.45 80.3457 43.8667 80.3457 40.9ZM99.7957 40.9C99.7957 39.4 99.4124 38.2333 98.6457 37.4C97.879 36.5667 96.8957 36.15 95.6957 36.15C94.4957 36.15 93.5124 36.5667 92.7457 37.4C91.979 38.2333 91.5957 39.4 91.5957 40.9C91.5957 42.4 91.979 43.5667 92.7457 44.4C93.5124 45.2333 94.4957 45.65 95.6957 45.65C96.8957 45.65 97.879 45.2333 98.6457 44.4C99.4124 43.5667 99.7957 42.4 99.7957 40.9ZM143.13 40.65C143.13 41.4167 143.08 42.15 142.98 42.85H125.13C125.297 45.2833 126.313 46.5 128.18 46.5C129.38 46.5 130.247 45.95 130.78 44.85H142.53C142.13 46.85 141.28 48.65 139.98 50.25C138.713 51.8167 137.097 53.0667 135.13 54C133.197 54.9 131.063 55.35 128.73 55.35C125.93 55.35 123.43 54.7667 121.23 53.6C119.063 52.4333 117.363 50.7667 116.13 48.6C114.93 46.4 114.33 43.8333 114.33 40.9C114.33 37.9667 114.93 35.4167 116.13 33.25C117.363 31.05 119.063 29.3667 121.23 28.2C123.43 27.0333 125.93 26.45 128.73 26.45C131.53 26.45 134.013 27.0333 136.18 28.2C138.38 29.3333 140.08 30.9667 141.28 33.1C142.513 35.2333 143.13 37.75 143.13 40.65ZM131.88 38C131.88 37.0667 131.58 36.3667 130.98 35.9C130.38 35.4 129.63 35.15 128.73 35.15C126.763 35.15 125.613 36.1 125.28 38H131.88ZM157.741 32C158.874 30.3667 160.257 29.0667 161.891 28.1C163.524 27.1 165.224 26.6 166.991 26.6V38.45H163.841C161.741 38.45 160.191 38.8167 159.191 39.55C158.224 40.2833 157.741 41.5833 157.741 43.45V55H146.641V26.8H157.741V32ZM189.73 26.6C192.964 26.6 195.48 27.6833 197.28 29.85C199.114 32.0167 200.03 34.95 200.03 38.65V55H188.98V40.05C188.98 38.7167 188.614 37.6667 187.88 36.9C187.18 36.1 186.23 35.7 185.03 35.7C183.797 35.7 182.83 36.1 182.13 36.9C181.43 37.6667 181.08 38.7167 181.08 40.05V55H169.98V26.8H181.08V31.1C181.947 29.7667 183.097 28.6833 184.53 27.85C185.997 27.0167 187.73 26.6 189.73 26.6Z" fill="url(#paint1_linear_14_7)"/>
<defs>
<linearGradient id="paint0_linear_14_7" x1="145" y1="43" x2="145" y2="118" gradientUnits="userSpaceOnUse">
<stop stop-color="#D44E86"/>
<stop offset="1" stop-color="#F95D6A" stop-opacity="0.49"/>
</linearGradient>
<linearGradient id="paint1_linear_14_7" x1="101.5" y1="0" x2="101.5" y2="75" gradientUnits="userSpaceOnUse">
<stop stop-color="#D44E86"/>
<stop offset="1" stop-color="#F95D6A" stop-opacity="0.49"/>
</linearGradient>
</defs>
</svg>
